#!OML:ASF H:\Dans Jumps\Project 1\Capture day 1\Session 1\subject.ASF
:FULLY-SPECIFIED
:DEGREES
692
root 0.314772 17.6925 -6.78002 9.86252 -0.868857 -1.43558
lowerback 3.47054 0.224542 -0.344053
upperback 5.68676 0.26165 1.1258
thorax 3.90748 0.0895594 1.35344
lowerneck -12.6323 0.122647 -1.16481
upperneck 33.4805 0.0248848 1.36225
head 13.3572 0.0411705 0.744577
rclavicle -1.73937e-015 -6.95746e-016
rhumerus -34.4227 -10.6402 -80.4926
rradius 34.2334
rwrist 22.5876
rhand -18.7474 -25.2236
rfingers 7.12502
rthumb 7.54897 -55.0689
lclavicle -1.73937e-015 -6.95746e-016
lhumerus -35.1001 -3.68317 88.934
lradius 36.0434
lwrist 20.0219
lhand -27.9615 -5.91999
lfingers 7.12502
lthumb -1.34875 24.0555
rfemur -23.7049 -1.61854 19.2789
rtibia 25.7846
rfoot -11.1196 1.23888
rtoes 15.927
lfemur -21.6408 7.04426 -18.4308
ltibia 23.0019
lfoot -9.62194 4.80108
ltoes 7.75564
693
root 0.317381 17.6924 -6.78058 9.84558 -0.880562 -1.44453
lowerback 3.4659 0.223459 -0.344572
upperback 5.68772 0.260047 1.12995
thorax 3.91113 0.0886119 1.35805
lowerneck -12.6235 0.123533 -1.1572
upperneck 33.4889 0.0253109 1.35754
head 13.3589 0.0415815 0.741469
rclavicle 9.93923e-016 9.93923e-016
rhumerus -34.4418 -10.6781 -80.4643
rradius 34.209
rwrist 22.6002
rhand -18.7565 -25.2094
rfingers 7.12502
rthumb 7.54021 -55.055
lclavicle 9.93923e-016 9.93923e-016
lhumerus -35.106 -3.56571 88.8325
lradius 35.8095
lwrist 19.9169
lhand -27.8935 -5.67855
lfingers 7.12502
lthumb -1.28305 24.2973
rfemur -23.6816 -1.6098 19.2778
rtibia 25.7693
rfoot -11.1104 1.24346
rtoes 15.9327
lfemur -21.6246 7.054 -18.4287
ltibia 23.0065
lfoot -9.62686 4.80159
ltoes 7.76825
694
root 0.320045 17.6922 -6.78119 9.8282 -0.890941 -1.45225
lowerback 3.46078 0.221124 -0.345035
upperback 5.69059 0.256804 1.13263
thorax 3.91709 0.0868644 1.36112
lowerneck -12.6189 0.125003 -1.14851
upperneck 33.4984 0.0258116 1.35427
head 13.3621 0.0423422 0.738777
rclavicle -1.98785e-016 -3.47873e-015
rhumerus -34.4562 -10.7098 -80.4426
rradius 34.1874
rwrist 22.6138
rhand -18.7577 -25.2019
rfingers 7.12502
rthumb 7.53903 -55.0475
lclavicle -1.98785e-016 -3.47873e-015
lhumerus -35.1091 -3.45155 88.7326
lradius 35.5813
lwrist 19.815
lhand -27.8587 -5.5143
lfingers 7.12502
lthumb -1.24944 24.4618
rfemur -23.6594 -1.6069 19.2759
rtibia 25.7571
rfoot -11.1029 1.25297
rtoes 15.9297
lfemur -21.6093 7.061 -18.4277
ltibia 23.0135
lfoot -9.63159 4.80309
ltoes 7.78412
695
root 0.3228 17.692 -6.78199 9.81093 -0.899128 -1.45864
lowerback 3.45573 0.217647 -0.345927
upperback 5.69498 0.252048 1.13463
thorax 3.92466 0.084348 1.36374
lowerneck -12.6171 0.126638 -1.14091
upperneck 33.5085 0.0259182 1.35378
head 13.366 0.0431561 0.737327
rclavicle -7.45443e-016 -2.28602e-015
rhumerus -34.4619 -10.7397 -80.4246
rradius 34.1627
rwrist 22.6305
rhand -18.7475 -25.196
rfingers 7.12502
rthumb 7.54888 -55.0413
lclavicle -7.45443e-016 -2.28602e-015
lhumerus -35.1121 -3.34341 88.6361
lradius 35.3577
lwrist 19.7137
lhand -27.8577 -5.45297
lfingers 7.12502
lthumb -1.24849 24.5231
rfemur -23.6395 -1.61331 19.2736
rtibia 25.747
rfoot -11.096 1.26953
rtoes 15.922
lfemur -21.596 7.06436 -18.4282
ltibia 23.0234
lfoot -9.63585 4.80506
ltoes 7.80465
